<svg xmlns="http://www.w3.org/2000/svg" viewBox="0 0 512 512" role="img" aria-labelledby="title desc">
  <title id="title">Cicada Studio icon candidate 3: Night Song</title>
  <desc id="desc">A compact nocturnal cicada silhouette with subtle sound waves.</desc>
  <rect width="512" height="512" rx="112" fill="#006c66"/>
  <path d="M88 256c0-93 75-168 168-168s168 75 168 168-75 168-168 168S88 349 88 256Z" fill="#1f2926"/>
  <path d="M159 196c-29 35-31 91-5 132 20 31 53 50 88 53-15-37-22-78-22-121 0-38 7-72 20-100-32-6-61 8-81 36Z" fill="#eaf6ee"/>
  <path d="M353 196c29 35 31 91 5 132-20 31-53 50-88 53 15-37 22-78 22-121 0-38-7-72-20-100 32-6 61 8 81 36Z" fill="#eaf6ee"/>
  <path d="M256 122c-37 29-59 80-59 138 0 72 24 126 59 151 35-25 59-79 59-151 0-58-22-109-59-138Z" fill="#fff3dc"/>
  <path d="M256 144c-21 28-33 68-33 116 0 51 12 91 33 120 21-29 33-69 33-120 0-48-12-88-33-116Z" fill="#a64737"/>
  <path d="M229 215h54M224 265h64M231 315h50" stroke="#fff3dc" stroke-width="14" stroke-linecap="round"/>
  <circle cx="231" cy="154" r="14" fill="#ffffff"/>
  <circle cx="281" cy="154" r="14" fill="#ffffff"/>
  <path d="M97 205c21-38 52-69 90-90M425 205c-21-38-52-69-90-90M107 336c24 34 57 60 96 75M405 336c-24 34-57 60-96 75" fill="none" stroke="#b57920" stroke-width="18" stroke-linecap="round"/>
</svg>
